<svg width="141" height="248" viewBox="0 0 141 248" fill="none" xmlns="http://www.w3.org/2000/svg">
<rect width="115.13" height="128.529" transform="matrix(0.895132 0.4458 -2.55394e-08 1 0 68.146)" fill="url(#paint0_linear_559_195)"/>
<g filter="url(#filter0_i_559_195)">
<path d="M0 68.1462L38 51.7566L141 103.082V231.611L103 248V119.471L0 68.1462Z" fill="url(#paint1_linear_559_195)"/>
</g>
<path d="M37.9089 55.063L133.88 102.886L103.091 116.165L7.12018 68.3423L37.9089 55.063ZM106 121.445L138 107.643V229.637L106 243.439V121.445Z" stroke="url(#paint2_linear_559_195)" stroke-width="6"/>
<path d="M38 56.9321V81.9478" stroke="black"/>
<rect width="107.973" height="30.5536" transform="matrix(0.895132 0.4458 -0.895132 0.4458 37.3495 54.3442)" fill="black"/>
<rect x="1.79026" y="2.8916" width="85.3723" height="66.4471" transform="matrix(0.895132 0.4458 -2.55394e-08 1 40.1877 -0.798101)" fill="#C4C4C4" stroke="black" stroke-width="4"/>
<rect x="1.79026" y="2.8916" width="86.4894" height="64.905" transform="matrix(0.895132 0.4458 -2.55394e-08 1 31.1877 3.51489)" fill="#C4C4C4" stroke="black" stroke-width="4"/>
<rect x="1.79026" y="2.8916" width="89.8409" height="60.9044" transform="matrix(0.895132 0.4458 -2.55394e-08 1 23.1877 8.69067)" fill="#C4C4C4" stroke="black" stroke-width="4"/>
<rect x="1.79026" y="2.8916" width="90.958" height="50.781" transform="matrix(0.895132 0.4458 -2.55394e-08 1 16.1877 15.5915)" fill="#C4C4C4" stroke="black" stroke-width="4"/>
<path d="M75.752 122.255C81.5999 130.997 85.072 140.481 85.5469 148.903C85.6003 149.85 84.9578 150.302 84.0926 150.067L21.9876 169.857C22.2006 172.053 22.6359 174.331 23.2864 176.655L60.3641 165.668C61.2038 165.42 62.4269 166.167 63.0961 167.337C63.7652 168.507 63.627 169.658 62.7872 169.906L24.7992 181.162C25.534 183.044 26.396 184.921 27.3751 186.776C27.4557 186.724 27.5462 186.683 27.6465 186.655L50.2408 180.376C51.0881 180.141 52.3096 180.901 52.9692 182.074C53.6287 183.247 53.4765 184.389 52.6292 184.624L30.0348 190.903C29.9592 190.924 29.8805 190.938 29.7995 190.943C30.0439 191.327 30.2932 191.709 30.5474 192.089C33.3095 196.218 36.5886 200.035 40.1975 203.322C43.8064 206.609 47.6743 209.303 51.5806 211.248C55.4868 213.194 59.3547 214.353 62.9636 214.66C66.5725 214.967 69.8516 214.416 72.6137 213.039C75.3758 211.661 77.5668 209.484 79.0617 206.631C80.3082 204.252 81.0502 201.442 81.2624 198.316C81.3325 197.283 82.1963 196.845 83.27 197.38C84.3438 197.914 85.22 199.219 85.158 200.257C84.9409 203.889 84.0959 207.151 82.654 209.903C80.9637 213.129 78.4863 215.591 75.3631 217.149C72.2399 218.707 68.5322 219.33 64.4516 218.982C60.371 218.635 55.9974 217.324 51.5806 215.124C47.1637 212.924 42.7901 209.879 38.7095 206.162C34.6289 202.445 30.9212 198.129 27.798 193.46C24.6748 188.791 22.1974 183.862 20.5071 178.952C19.0652 174.764 18.2203 170.661 18.0031 166.812C17.9495 165.862 18.596 165.411 19.4651 165.65L81.5628 145.863C81.3332 143.492 80.8445 141.025 80.1056 138.51L42.5197 150.374C41.6879 150.637 40.4632 149.903 39.7842 148.736C39.1052 147.569 39.2291 146.409 40.0609 146.147L78.5325 134.003C77.6627 131.849 76.6272 129.703 75.4413 127.594L52.6324 134.861C51.8018 135.126 50.5769 134.394 49.8964 133.228C49.216 132.061 49.3377 130.9 50.1682 130.636L72.8551 123.407C70.124 119.362 66.8973 115.622 63.3525 112.393C59.7436 109.105 55.8756 106.412 51.9694 104.467C48.0632 102.521 44.1952 101.362 40.5863 101.055C36.9775 100.747 33.6984 101.298 30.9363 102.676C28.1742 104.054 25.9831 106.231 24.4883 109.084C23.2418 111.463 22.4997 114.273 22.2876 117.398C22.2174 118.432 21.3536 118.87 20.2799 118.335C19.2062 117.8 18.3299 116.495 18.3919 115.458C18.8668 107.509 22.3389 101.483 28.1868 98.5661C34.4944 95.42 43.0492 96.1483 51.9694 100.591C60.8896 105.033 69.4444 112.826 75.752 122.255Z" fill="#1A2969"/>
<path d="M73.752 122.255C79.5999 130.997 83.072 140.481 83.5469 148.903C83.6003 149.85 82.9578 150.302 82.0926 150.067L19.9876 169.857C20.2006 172.053 20.6359 174.331 21.2864 176.655L58.3641 165.668C59.2038 165.42 60.4269 166.167 61.0961 167.337C61.7652 168.507 61.627 169.658 60.7872 169.906L22.7992 181.162C23.534 183.044 24.396 184.921 25.3751 186.776C25.4557 186.724 25.5462 186.683 25.6465 186.655L48.2408 180.376C49.0881 180.141 50.3096 180.901 50.9692 182.074C51.6287 183.247 51.4765 184.389 50.6292 184.624L28.0348 190.903C27.9592 190.924 27.8805 190.938 27.7995 190.943C28.0439 191.327 28.2932 191.709 28.5474 192.089C31.3095 196.218 34.5886 200.035 38.1975 203.322C41.8064 206.609 45.6743 209.303 49.5806 211.248C53.4868 213.194 57.3547 214.353 60.9636 214.66C64.5725 214.967 67.8516 214.416 70.6137 213.039C73.3758 211.661 75.5668 209.484 77.0617 206.631C78.3082 204.252 79.0502 201.442 79.2624 198.316C79.3325 197.283 80.1963 196.845 81.27 197.38C82.3438 197.914 83.22 199.219 83.158 200.257C82.9409 203.889 82.0959 207.151 80.654 209.903C78.9637 213.129 76.4863 215.591 73.3631 217.149C70.2399 218.707 66.5322 219.33 62.4516 218.982C58.371 218.635 53.9974 217.324 49.5806 215.124C45.1637 212.924 40.7901 209.879 36.7095 206.162C32.6289 202.445 28.9212 198.129 25.798 193.46C22.6748 188.791 20.1974 183.862 18.5071 178.952C17.0652 174.764 16.2203 170.661 16.0031 166.812C15.9495 165.862 16.596 165.411 17.4651 165.65L79.5628 145.863C79.3332 143.492 78.8445 141.025 78.1056 138.51L40.5197 150.374C39.6879 150.637 38.4632 149.903 37.7842 148.736C37.1052 147.569 37.2291 146.409 38.0609 146.147L76.5325 134.003C75.6627 131.849 74.6272 129.703 73.4413 127.594L50.6324 134.861C49.8018 135.126 48.5769 134.394 47.8964 133.228C47.216 132.061 47.3377 130.9 48.1682 130.636L70.8551 123.407C68.124 119.362 64.8973 115.622 61.3525 112.393C57.7436 109.105 53.8756 106.412 49.9694 104.467C46.0632 102.521 42.1952 101.362 38.5863 101.055C34.9775 100.747 31.6984 101.298 28.9363 102.676C26.1742 104.054 23.9831 106.231 22.4883 109.084C21.2418 111.463 20.4997 114.273 20.2876 117.398C20.2174 118.432 19.3536 118.87 18.2799 118.335C17.2062 117.8 16.3299 116.495 16.3919 115.458C16.8668 107.509 20.3389 101.483 26.1868 98.5661C32.4944 95.42 41.0492 96.1483 49.9694 100.591C58.8896 105.033 67.4444 112.826 73.752 122.255Z" fill="#9BADEF"/>
<defs>
<filter id="filter0_i_559_195" x="-4" y="47.7566" width="145" height="200.243" filterUnits="userSpaceOnUse" color-interpolation-filters="sRGB">
<feFlood flood-opacity="0" result="BackgroundImageFix"/>
<feBlend mode="normal" in="SourceGraphic" in2="BackgroundImageFix" result="shape"/>
<feColorMatrix in="SourceAlpha" type="matrix" values="0 0 0 0 0 0 0 0 0 0 0 0 0 0 0 0 0 0 127 0" result="hardAlpha"/>
<feOffset dx="-51" dy="-7"/>
<feGaussianBlur stdDeviation="2"/>
<feComposite in2="hardAlpha" operator="arithmetic" k2="-1" k3="1"/>
<feColorMatrix type="matrix" values="0 0 0 0 0 0 0 0 0 0 0 0 0 0 0 0 0 0 0.25 0"/>
<feBlend mode="overlay" in2="shape" result="effect1_innerShadow_559_195"/>
</filter>
<linearGradient id="paint0_linear_559_195" x1="1.11715" y1="1.22719" x2="34.6711" y2="81.9123" gradientUnits="userSpaceOnUse">
<stop stop-color="#AFC1FF"/>
<stop offset="1" stop-color="#364D9F"/>
</linearGradient>
<linearGradient id="paint1_linear_559_195" x1="36.5" y1="53.9131" x2="63.4749" y2="118.722" gradientUnits="userSpaceOnUse">
<stop stop-color="#A3AED6"/>
<stop offset="1" stop-color="#344A9B"/>
</linearGradient>
<linearGradient id="paint2_linear_559_195" x1="38" y1="51.7566" x2="88.1097" y2="251.554" gradientUnits="userSpaceOnUse">
<stop/>
<stop offset="0.598958" stop-color="#295384"/>
</linearGradient>
</defs>
</svg>
