<svg width="279" height="383" viewBox="0 0 279 383" fill="none" xmlns="http://www.w3.org/2000/svg">
<rect width="279" height="383" fill="#575B5E"/>
<rect x="26" y="26" width="227" height="331" fill="#A3B2BA"/>
<rect x="26" y="26" width="227" height="331" fill="url(#paint0_linear_457_2)" fill-opacity="0.2"/>
<rect x="140" y="93.4192" width="138" height="138" transform="rotate(45 140 93.4192)" fill="url(#paint1_linear_457_2)" fill-opacity="0.74" stroke="url(#paint2_linear_457_2)" stroke-width="4"/>
<rect x="140" y="103" width="125.576" height="125.576" transform="rotate(45 140 103)" fill="#92A4AE"/>
<rect x="139" y="110" width="115.114" height="115.114" transform="rotate(45 139 110)" fill="#5D6F75"/>
<circle cx="140" cy="191" r="50.5" fill="#D0D0D0" stroke="url(#paint3_linear_457_2)" stroke-width="5"/>
<circle cx="140" cy="191" r="14" fill="#637277" stroke="url(#paint4_linear_457_2)" stroke-width="4"/>
<path fill-rule="evenodd" clip-rule="evenodd" d="M201.665 68.3353C216.705 83.3752 225.634 103.383 226.856 124.502C226.993 126.876 225.341 128.868 223.116 129.375L63.3918 260.233C63.9397 265.625 65.0591 270.945 66.7323 276.103L162.09 200.116C164.249 198.395 167.395 198.751 169.116 200.91C170.837 203.07 170.481 206.216 168.322 207.937L70.6229 285.79C72.5125 289.699 74.7295 293.437 77.2476 296.962C77.4549 296.725 77.6877 296.504 77.9456 296.303L136.054 251.071C138.234 249.375 141.375 249.766 143.071 251.946C144.767 254.125 144.376 257.266 142.197 258.962L84.088 304.194C83.8934 304.346 83.6911 304.481 83.4828 304.599C84.1114 305.275 84.7526 305.94 85.4063 306.594C92.51 313.697 100.943 319.332 110.225 323.177C119.506 327.021 129.454 329 139.5 329C149.546 329 159.494 327.021 168.775 323.177C178.057 319.332 186.49 313.697 193.594 306.594C200.697 299.49 206.332 291.057 210.177 281.775C213.383 274.036 215.291 265.833 215.837 257.497C216.017 254.741 218.239 252.5 221 252.5C223.761 252.5 226.015 254.74 225.856 257.497C225.297 267.148 223.124 276.649 219.416 285.602C215.069 296.097 208.697 305.632 200.665 313.665C192.632 321.697 183.097 328.069 172.602 332.416C162.107 336.763 150.859 339 139.5 339C128.141 339 116.893 336.763 106.398 332.416C95.9032 328.069 86.3675 321.697 78.3352 313.665C70.303 305.632 63.9314 296.097 59.5844 285.602C55.876 276.649 53.7029 267.148 53.1445 257.497C53.0067 255.116 54.6693 253.12 56.9046 252.62L216.609 121.778C216.019 115.957 214.762 110.22 212.862 104.68L116.197 183.585C114.058 185.331 110.908 185.013 109.162 182.873C107.416 180.734 107.734 177.584 109.873 175.838L208.816 95.0735C206.579 90.6342 203.916 86.4262 200.866 82.5083L142.205 130.567C140.069 132.317 136.919 132.004 135.169 129.868C133.419 127.732 133.732 124.581 135.868 122.831L194.215 75.0299C187.191 68.1034 178.892 62.5995 169.775 58.8232C160.494 54.9787 150.546 53 140.5 53C130.454 53 120.506 54.9787 111.225 58.8232C101.943 62.6677 93.51 68.3026 86.4064 75.4063C79.3027 82.51 73.6677 90.9433 69.8232 100.225C66.6175 107.964 64.709 116.167 64.1634 124.503C63.983 127.259 61.7614 129.5 59 129.5C56.2386 129.5 53.9849 127.259 54.1444 124.502C55.3658 103.383 64.2954 83.3752 79.3353 68.3353C95.5572 52.1134 117.559 43 140.5 43C163.441 43 185.443 52.1134 201.665 68.3353Z" fill="#3F92AE"/>
<circle cx="140" cy="191" r="12" fill="#3F92AE"/>
<rect x="26" y="26" width="227" height="331" stroke="url(#paint5_linear_457_2)" stroke-width="20"/>
<defs>
<linearGradient id="paint0_linear_457_2" x1="139.5" y1="16" x2="139.5" y2="367" gradientUnits="userSpaceOnUse">
<stop stop-color="#6AB8E3"/>
<stop offset="0.458333" stop-opacity="0.552083"/>
<stop offset="1" stop-color="#57B9D8"/>
</linearGradient>
<linearGradient id="paint1_linear_457_2" x1="211" y1="90.5908" x2="211" y2="232.591" gradientUnits="userSpaceOnUse">
<stop stop-color="white"/>
<stop offset="0.458333" stop-color="white" stop-opacity="0"/>
<stop offset="1" stop-color="#30474C"/>
</linearGradient>
<linearGradient id="paint2_linear_457_2" x1="211" y1="90.5908" x2="201.454" y2="230.534" gradientUnits="userSpaceOnUse">
<stop offset="0.380208" stop-color="white"/>
<stop offset="1" stop-color="#33494E"/>
</linearGradient>
<linearGradient id="paint3_linear_457_2" x1="193" y1="138" x2="87" y2="244" gradientUnits="userSpaceOnUse">
<stop offset="0.25" stop-opacity="0"/>
<stop offset="0.598958" stop-color="#3B4D4B"/>
</linearGradient>
<linearGradient id="paint4_linear_457_2" x1="156" y1="175" x2="124" y2="207" gradientUnits="userSpaceOnUse">
<stop stop-opacity="0"/>
<stop offset="0.755208"/>
</linearGradient>
<linearGradient id="paint5_linear_457_2" x1="139.5" y1="16" x2="139.5" y2="367" gradientUnits="userSpaceOnUse">
<stop stop-color="#2A3E42"/>
<stop offset="0.505208" stop-color="#646464" stop-opacity="0"/>
<stop offset="1" stop-color="#294146"/>
</linearGradient>
</defs>
</svg>
