<svg width="264" height="254" viewBox="0 0 264 254" fill="none" xmlns="http://www.w3.org/2000/svg">
<g filter="url(#filter0_i_558_127)">
<path d="M252.07 155.292C252.07 209.569 208.07 253.57 153.793 253.57C99.5157 253.57 70.5194 214.56 70.5194 204.807C130.536 184.551 135.525 110.28 189.802 110.28C228.813 93.026 252.07 101.015 252.07 155.292Z" fill="#EAEAEA"/>
</g>
<path d="M189.802 112.28H190.225L190.611 112.109C210.08 103.499 224.758 101.617 234.512 107.662C244.23 113.685 250.07 128.224 250.07 155.292C250.07 208.465 206.965 251.57 153.793 251.57C127.158 251.57 106.764 242.004 93.034 231.27C86.163 225.898 80.9789 220.247 77.5295 215.384C75.804 212.951 74.5302 210.74 73.6956 208.883C73.2096 207.801 72.8961 206.891 72.716 206.16C100.991 196.03 117.121 174.038 131.704 154.156C132.448 153.143 133.187 152.134 133.924 151.133C149.527 129.94 163.793 112.28 189.802 112.28Z" stroke="url(#paint0_linear_558_127)" stroke-width="4" style="mix-blend-mode:color-burn"/>
<g filter="url(#filter1_i_558_127)">
<path d="M11.9299 98.2772C11.9299 44.0002 55.9301 -2.82386e-05 110.207 -2.34935e-05C164.484 -1.87485e-05 193.48 39.0092 193.48 48.7627C133.464 69.0183 128.474 143.289 74.1974 143.289C35.1865 160.544 11.9299 152.554 11.9299 98.2772Z" fill="#C41B1B"/>
</g>
<path d="M74.1974 141.289L73.7748 141.289L73.3884 141.46C53.9201 150.071 39.2419 151.952 29.4881 145.907C19.7696 139.885 13.9299 125.346 13.9299 98.2772C13.9299 45.1047 57.0346 1.99997 110.207 1.99998C136.842 1.99998 157.236 11.5655 170.966 22.2994C177.837 27.6711 183.021 33.3222 186.47 38.1857C188.196 40.6187 189.47 42.8298 190.304 44.6869C190.79 45.7683 191.104 46.6781 191.284 47.4093C163.009 57.5393 146.878 79.5313 132.296 99.4133C131.552 100.427 130.813 101.435 130.076 102.436C114.473 123.63 100.207 141.289 74.1974 141.289Z" stroke="url(#paint1_linear_558_127)" stroke-width="4" style="mix-blend-mode:color-dodge"/>
<g filter="url(#filter2_i_558_127)">
<ellipse cx="157.507" cy="161.543" rx="98.1028" ry="43.0669" transform="rotate(-30 157.507 161.543)" fill="#C4C4C4"/>
</g>
<path d="M240.734 113.492C243.378 118.071 243.868 123.784 242.23 130.383C240.59 136.995 236.838 144.368 231.197 152.048C219.918 167.403 201.319 183.668 178.04 197.108C154.761 210.549 131.375 218.523 112.438 220.613C102.967 221.658 94.7056 221.221 88.1591 219.336C81.6257 217.454 76.9229 214.173 74.2794 209.595C71.6359 205.016 71.146 199.303 72.7832 192.704C74.4238 186.092 78.1757 178.719 83.8169 171.039C95.0955 155.684 113.694 139.419 136.973 125.978C160.253 112.538 183.638 104.564 202.575 102.474C212.047 101.428 220.308 101.866 226.855 103.751C233.388 105.632 238.091 108.913 240.734 113.492Z" stroke="url(#paint2_linear_558_127)" stroke-width="4"/>
<g filter="url(#filter3_i_558_127)">
<ellipse cx="106.493" cy="92.0259" rx="98.1028" ry="43.0669" transform="rotate(150 106.493 92.0259)" fill="#263250"/>
</g>
<path d="M23.6985 139.827C21.1374 135.391 20.6388 129.819 22.2546 123.307C23.8745 116.778 27.5892 109.464 33.2059 101.817C44.4347 86.5306 62.9759 70.3079 86.2095 56.894C109.443 43.48 132.763 35.5342 151.616 33.4533C161.047 32.4123 169.238 32.8523 175.702 34.7139C182.15 36.5708 186.726 39.7886 189.287 44.2245C191.848 48.6604 192.347 54.2324 190.731 60.7448C189.111 67.2738 185.397 74.5877 179.78 82.2343C168.551 97.5212 150.01 113.744 126.776 127.158C103.543 140.572 80.2229 148.518 61.3696 150.599C51.9391 151.639 43.7478 151.199 37.2836 149.338C30.8357 147.481 26.2595 144.263 23.6985 139.827Z" stroke="url(#paint3_linear_558_127)" stroke-width="5"/>
<path d="M111.664 38.2945C117.148 48.2345 112.212 61.6131 100.415 68.1209C88.6187 74.6287 74.6693 71.6685 69.1857 61.7285C63.7021 51.7885 68.6379 38.4099 80.4346 31.9021C92.2312 25.3943 106.181 28.3545 111.664 38.2945Z" fill="#931919" stroke="#680E0E"/>
<path d="M112.853 43.894C117.608 52.1611 112.774 63.5689 101.878 69.3338C90.9818 75.0986 78.3415 72.936 73.586 64.6689C68.8305 56.4019 73.6646 44.9941 84.5609 39.2292C95.4572 33.4643 108.098 35.627 112.853 43.894Z" fill="black" stroke="black" stroke-width="0.5"/>
<path d="M111.15 40.6517C115.827 48.7827 110.936 60.0832 100.036 65.85C89.1361 71.6168 76.56 69.5575 71.8828 61.4266C67.2055 53.2956 72.0966 41.995 82.9965 36.2282C93.8964 30.4614 106.473 32.5207 111.15 40.6517Z" fill="#3C3A3A" stroke="black" stroke-width="0.5"/>
<path d="M106.762 43.4441C109.869 50.7772 105.259 59.7753 96.4133 63.5239C87.5677 67.2724 77.896 64.3268 74.7884 56.9937C71.6808 49.6606 76.291 40.6626 85.1366 36.914C93.9822 33.1654 103.654 36.111 106.762 43.4441Z" fill="#C4C4C4" stroke="black" stroke-width="0.2"/>
<path d="M106.383 42.551C109.279 49.3856 104.508 57.9863 95.6563 61.7376C86.8043 65.4889 77.3063 62.9352 74.4099 56.1006C71.5135 49.266 76.2846 40.6653 85.1366 36.914C93.9886 33.1627 103.487 35.7163 106.383 42.551Z" fill="#ECECEC" stroke="black" stroke-width="0.2"/>
<path d="M101.985 43.3615C104.256 48.7198 100.77 55.3566 94.1425 58.1652C87.5148 60.9739 80.322 58.8625 78.0512 53.5042C75.7805 48.1459 79.266 41.5091 85.8937 38.7005C92.5214 35.8918 99.7143 38.0032 101.985 43.3615Z" fill="#C4C4C4" stroke="black" stroke-width="0.2"/>
<path d="M100.849 40.682C101.879 43.1123 101.485 45.8836 99.9997 48.4044C98.5143 50.9252 95.9407 53.1889 92.6284 54.5926C89.3162 55.9963 85.8997 56.2711 83.0554 55.5851C80.211 54.8992 77.9456 53.255 76.9156 50.8247C75.8857 48.3943 76.28 45.6231 77.7654 43.1023C79.2507 40.5815 81.8244 38.3178 85.1366 36.9141C88.4489 35.5104 91.8654 35.2356 94.7097 35.9216C97.5541 36.6075 99.8195 38.2517 100.849 40.682Z" fill="#ECECEC" stroke="black" stroke-width="0.2"/>
<circle cx="188.302" cy="195.804" r="21.756" fill="#A2A3A4"/>
<ellipse cx="185.615" cy="192.359" rx="22.4458" ry="19.3189" transform="rotate(-49.2195 185.615 192.359)" fill="#C4C4C4"/>
<circle cx="128.609" cy="184.125" r="32.5829" fill="#DF9E3C"/>
<circle cx="128.61" cy="184.125" r="25.0922" fill="#F9C84C" stroke="url(#paint4_linear_558_127)" stroke-width="0.5"/>
<circle opacity="0.5" cx="128.609" cy="184.125" r="32.5829" fill="url(#paint5_linear_558_127)"/>
<circle cx="121.107" cy="113.605" r="32.5829" fill="#DF9E3C"/>
<circle cx="121.107" cy="113.605" r="25.0922" fill="#F9C84C" stroke="url(#paint6_linear_558_127)" stroke-width="0.5"/>
<circle opacity="0.5" cx="121.107" cy="113.605" r="32.5829" fill="url(#paint7_linear_558_127)"/>
<circle cx="163.119" cy="107.604" r="32.5829" fill="#DF9E3C"/>
<circle cx="163.119" cy="107.603" r="25.0922" fill="#F9C84C" stroke="url(#paint8_linear_558_127)" stroke-width="0.5"/>
<circle opacity="0.5" cx="163.119" cy="107.604" r="32.5829" fill="url(#paint9_linear_558_127)"/>
<circle cx="106.103" cy="160.119" r="32.5829" fill="#DF9E3C"/>
<circle cx="106.103" cy="160.118" r="25.0922" fill="#F9C84C" stroke="url(#paint10_linear_558_127)" stroke-width="0.5"/>
<circle opacity="0.5" cx="106.103" cy="160.119" r="32.5829" fill="url(#paint11_linear_558_127)"/>
<circle cx="154.116" cy="160.119" r="32.5829" fill="#DF9E3C"/>
<circle cx="154.116" cy="160.118" r="25.0922" fill="#F9C84C" stroke="url(#paint12_linear_558_127)" stroke-width="0.5"/>
<circle opacity="0.5" cx="154.116" cy="160.119" r="32.5829" fill="url(#paint13_linear_558_127)"/>
<circle cx="195.48" cy="135.646" r="32.5829" fill="#DF9E3C"/>
<circle cx="195.48" cy="135.645" r="25.0922" fill="#F9C84C" stroke="url(#paint14_linear_558_127)" stroke-width="0.5"/>
<circle opacity="0.5" cx="195.48" cy="135.646" r="32.5829" fill="url(#paint15_linear_558_127)"/>
<defs>
<filter id="filter0_i_558_127" x="70.5194" y="90.1343" width="195.551" height="163.435" filterUnits="userSpaceOnUse" color-interpolation-filters="sRGB">
<feFlood flood-opacity="0" result="BackgroundImageFix"/>
<feBlend mode="normal" in="SourceGraphic" in2="BackgroundImageFix" result="shape"/>
<feColorMatrix in="SourceAlpha" type="matrix" values="0 0 0 0 0 0 0 0 0 0 0 0 0 0 0 0 0 0 127 0" result="hardAlpha"/>
<feOffset dx="16" dy="-12"/>
<feGaussianBlur stdDeviation="7"/>
<feComposite in2="hardAlpha" operator="arithmetic" k2="-1" k3="1"/>
<feColorMatrix type="matrix" values="0 0 0 0 0.0928125 0 0 0 0 0.165687 0 0 0 0 0.275 0 0 0 0.37 0"/>
<feBlend mode="normal" in2="shape" result="effect1_innerShadow_558_127"/>
</filter>
<filter id="filter1_i_558_127" x="11.9299" y="-13" width="191.551" height="164.435" filterUnits="userSpaceOnUse" color-interpolation-filters="sRGB">
<feFlood flood-opacity="0" result="BackgroundImageFix"/>
<feBlend mode="normal" in="SourceGraphic" in2="BackgroundImageFix" result="shape"/>
<feColorMatrix in="SourceAlpha" type="matrix" values="0 0 0 0 0 0 0 0 0 0 0 0 0 0 0 0 0 0 127 0" result="hardAlpha"/>
<feOffset dx="10" dy="-48"/>
<feGaussianBlur stdDeviation="6.5"/>
<feComposite in2="hardAlpha" operator="arithmetic" k2="-1" k3="1"/>
<feColorMatrix type="matrix" values="0 0 0 0 0.243681 0 0 0 0 0.120694 0 0 0 0 0.366667 0 0 0 0.3 0"/>
<feBlend mode="normal" in2="shape" result="effect1_innerShadow_558_127"/>
</filter>
<filter id="filter2_i_558_127" x="69.84" y="99.9194" width="184.334" height="132.248" filterUnits="userSpaceOnUse" color-interpolation-filters="sRGB">
<feFlood flood-opacity="0" result="BackgroundImageFix"/>
<feBlend mode="normal" in="SourceGraphic" in2="BackgroundImageFix" result="shape"/>
<feColorMatrix in="SourceAlpha" type="matrix" values="0 0 0 0 0 0 0 0 0 0 0 0 0 0 0 0 0 0 127 0" result="hardAlpha"/>
<feMorphology radius="5" operator="erode" in="SourceAlpha" result="effect1_innerShadow_558_127"/>
<feOffset dx="38" dy="15"/>
<feGaussianBlur stdDeviation="2"/>
<feComposite in2="hardAlpha" operator="arithmetic" k2="-1" k3="1"/>
<feColorMatrix type="matrix" values="0 0 0 0 0.0719444 0 0 0 0 0.0900333 0 0 0 0 0.154167 0 0 0 0.37 0"/>
<feBlend mode="normal" in2="shape" result="effect1_innerShadow_558_127"/>
</filter>
<filter id="filter3_i_558_127" x="18.826" y="28.4019" width="186.334" height="125.248" filterUnits="userSpaceOnUse" color-interpolation-filters="sRGB">
<feFlood flood-opacity="0" result="BackgroundImageFix"/>
<feBlend mode="normal" in="SourceGraphic" in2="BackgroundImageFix" result="shape"/>
<feColorMatrix in="SourceAlpha" type="matrix" values="0 0 0 0 0 0 0 0 0 0 0 0 0 0 0 0 0 0 127 0" result="hardAlpha"/>
<feMorphology radius="4" operator="erode" in="SourceAlpha" result="effect1_innerShadow_558_127"/>
<feOffset dx="29" dy="-2"/>
<feGaussianBlur stdDeviation="3.5"/>
<feComposite in2="hardAlpha" operator="arithmetic" k2="-1" k3="1"/>
<feColorMatrix type="matrix" values="0 0 0 0 0.109542 0 0 0 0 0.0145833 0 0 0 0 0.125 0 0 0 0.46 0"/>
<feBlend mode="normal" in2="shape" result="effect1_innerShadow_558_127"/>
</filter>
<linearGradient id="paint0_linear_558_127" x1="112.531" y1="140.289" x2="243.067" y2="198.805" gradientUnits="userSpaceOnUse">
<stop stop-color="#B5B5B5"/>
<stop offset="1" stop-color="#B5B5B5" stop-opacity="0"/>
</linearGradient>
<linearGradient id="paint1_linear_558_127" x1="59.2663" y1="148.541" x2="102.705" y2="-2.12793e-05" gradientUnits="userSpaceOnUse">
<stop/>
<stop offset="1" stop-color="#C31B1B"/>
</linearGradient>
<linearGradient id="paint2_linear_558_127" x1="135.973" y1="124.246" x2="179.04" y2="198.84" gradientUnits="userSpaceOnUse">
<stop/>
<stop offset="1" stop-color="#B5B5B5" stop-opacity="0"/>
</linearGradient>
<linearGradient id="paint3_linear_558_127" x1="132.787" y1="124.534" x2="-21.0059" y2="111.781" gradientUnits="userSpaceOnUse">
<stop/>
<stop offset="1" stop-color="#686868"/>
</linearGradient>
<linearGradient id="paint4_linear_558_127" x1="128.61" y1="158.782" x2="128.61" y2="209.467" gradientUnits="userSpaceOnUse">
<stop stop-color="#EAB224"/>
<stop offset="1" stop-opacity="0"/>
</linearGradient>
<linearGradient id="paint5_linear_558_127" x1="153.952" y1="151.542" x2="132.23" y2="180.505" gradientUnits="userSpaceOnUse">
<stop stop-color="#FFFACA"/>
<stop offset="1" stop-color="#FFFACA" stop-opacity="0"/>
</linearGradient>
<linearGradient id="paint6_linear_558_127" x1="121.107" y1="88.2625" x2="121.107" y2="138.947" gradientUnits="userSpaceOnUse">
<stop stop-color="#EAB224"/>
<stop offset="1" stop-opacity="0"/>
</linearGradient>
<linearGradient id="paint7_linear_558_127" x1="146.45" y1="81.0225" x2="124.728" y2="109.985" gradientUnits="userSpaceOnUse">
<stop stop-color="#FFFACA"/>
<stop offset="1" stop-color="#FFFACA" stop-opacity="0"/>
</linearGradient>
<linearGradient id="paint8_linear_558_127" x1="163.119" y1="82.261" x2="163.119" y2="132.945" gradientUnits="userSpaceOnUse">
<stop stop-color="#EAB224"/>
<stop offset="1" stop-opacity="0"/>
</linearGradient>
<linearGradient id="paint9_linear_558_127" x1="188.461" y1="75.021" x2="166.739" y2="103.984" gradientUnits="userSpaceOnUse">
<stop stop-color="#FFFACA"/>
<stop offset="1" stop-color="#FFFACA" stop-opacity="0"/>
</linearGradient>
<linearGradient id="paint10_linear_558_127" x1="106.103" y1="134.776" x2="106.103" y2="185.46" gradientUnits="userSpaceOnUse">
<stop stop-color="#EAB224"/>
<stop offset="1" stop-opacity="0"/>
</linearGradient>
<linearGradient id="paint11_linear_558_127" x1="131.445" y1="127.536" x2="109.723" y2="156.498" gradientUnits="userSpaceOnUse">
<stop stop-color="#FFFACA"/>
<stop offset="1" stop-color="#FFFACA" stop-opacity="0"/>
</linearGradient>
<linearGradient id="paint12_linear_558_127" x1="154.116" y1="134.776" x2="154.116" y2="185.46" gradientUnits="userSpaceOnUse">
<stop stop-color="#EAB224"/>
<stop offset="1" stop-opacity="0"/>
</linearGradient>
<linearGradient id="paint13_linear_558_127" x1="179.459" y1="127.536" x2="157.737" y2="156.498" gradientUnits="userSpaceOnUse">
<stop stop-color="#FFFACA"/>
<stop offset="1" stop-color="#FFFACA" stop-opacity="0"/>
</linearGradient>
<linearGradient id="paint14_linear_558_127" x1="195.48" y1="110.303" x2="195.48" y2="160.988" gradientUnits="userSpaceOnUse">
<stop stop-color="#EAB224"/>
<stop offset="1" stop-opacity="0"/>
</linearGradient>
<linearGradient id="paint15_linear_558_127" x1="220.822" y1="103.063" x2="199.1" y2="132.026" gradientUnits="userSpaceOnUse">
<stop stop-color="#FFFACA"/>
<stop offset="1" stop-color="#FFFACA" stop-opacity="0"/>
</linearGradient>
</defs>
</svg>
