<svg width="18" height="18" viewBox="0 0 18 18" fill="none" xmlns="http://www.w3.org/2000/svg">
<path d="M7.50487 1.68282C8.30049 0.78732 9.69951 0.787319 10.4951 1.68282L12.3057 3.72064C12.4978 3.93685 12.7345 4.10883 12.9995 4.22471L15.497 5.31691C16.5946 5.79687 17.0269 7.12741 16.4211 8.16082L15.0425 10.5125C14.8962 10.762 14.8058 11.0402 14.7775 11.3281L14.5105 14.0409C14.3932 15.233 13.2614 16.0554 12.0913 15.7985L9.42879 15.2141C9.14629 15.1521 8.85371 15.1521 8.57121 15.2141L5.90866 15.7985C4.73862 16.0554 3.60679 15.233 3.48948 14.0409L3.22253 11.3281C3.1942 11.0402 3.10379 10.762 2.95752 10.5125L1.57893 8.16082C0.973117 7.12742 1.40544 5.79687 2.50297 5.31691L5.00054 4.22471C5.26553 4.10883 5.50223 3.93685 5.69433 3.72064L7.50487 1.68282Z" fill="#DF9E3C"/>
<path d="M9.05249 3.97148L10.8151 5.89147C10.9281 6.01452 11.0646 6.11368 11.2165 6.18309L13.5872 7.26615C13.9869 7.44876 14.1447 7.93436 13.9287 8.31704L12.6473 10.5867C12.5652 10.7322 12.5131 10.8926 12.494 11.0586L12.1966 13.6479C12.1464 14.0845 11.7333 14.3846 11.3026 14.2974L8.74807 13.7802C8.58435 13.747 8.41565 13.747 8.25193 13.7802L5.69739 14.2974C5.26667 14.3846 4.8536 14.0845 4.80345 13.6479L4.50599 11.0586C4.48692 10.8926 4.43479 10.7322 4.35267 10.5867L3.07134 8.31704C2.85529 7.93436 3.01307 7.44876 3.41279 7.26615L5.78349 6.18309C5.93543 6.11368 6.07191 6.01452 6.18488 5.89147L7.94751 3.97148C8.24471 3.64776 8.75529 3.64776 9.05249 3.97148Z" fill="#F9C84C" stroke="url(#paint0_linear_427_143)" stroke-width="0.5"/>
<path d="M7.50487 1.68282C8.30049 0.78732 9.69951 0.787319 10.4951 1.68282L12.3057 3.72064C12.4978 3.93685 12.7345 4.10883 12.9995 4.22471L15.497 5.31691C16.5946 5.79687 17.0269 7.12741 16.4211 8.16082L15.0425 10.5125C14.8962 10.762 14.8058 11.0402 14.7775 11.3281L14.5105 14.0409C14.3932 15.233 13.2614 16.0554 12.0913 15.7985L9.42879 15.2141C9.14629 15.1521 8.85371 15.1521 8.57121 15.2141L5.90866 15.7985C4.73862 16.0554 3.60679 15.233 3.48948 14.0409L3.22253 11.3281C3.1942 11.0402 3.10379 10.762 2.95752 10.5125L1.57893 8.16082C0.973117 7.12742 1.40544 5.79687 2.50297 5.31691L5.00054 4.22471C5.26553 4.10883 5.50223 3.93685 5.69433 3.72064L7.50487 1.68282Z" fill="url(#paint1_linear_427_143)"/>
<defs>
<linearGradient id="paint0_linear_427_143" x1="4" y1="15" x2="11" y2="7" gradientUnits="userSpaceOnUse">
<stop stop-color="#DF9E3C"/>
<stop offset="1" stop-color="#911F1F" stop-opacity="0"/>
</linearGradient>
<linearGradient id="paint1_linear_427_143" x1="12.5" y1="3.5" x2="8" y2="10.5" gradientUnits="userSpaceOnUse">
<stop stop-color="#F7FBDF" stop-opacity="0.45"/>
<stop offset="1" stop-color="#BE4EC8" stop-opacity="0"/>
</linearGradient>
</defs>
</svg>
